<?xml version="1.0" standalone="no"?>
<!DOCTYPE svg PUBLIC "-//W3C//DTD SVG 20010904//EN"
 "http://www.w3.org/TR/2001/REC-SVG-20010904/DTD/svg10.dtd">
<svg version="1.0" xmlns="http://www.w3.org/2000/svg"
 width="1024.000000pt" height="1024.000000pt" viewBox="0 0 1024.000000 1024.000000"
 preserveAspectRatio="xMidYMid meet">

<g transform="translate(0.000000,1024.000000) scale(0.100000,-0.100000)"
fill="#000000" stroke="none">
<path d="M4880 9349 c-638 -33 -1306 -230 -1867 -549 -158 -91 -265 -162 -441
-295 -1019 -768 -1608 -1835 -1692 -3070 -75 -1109 265 -2178 956 -3010 135
-162 434 -463 577 -581 475 -390 1008 -670 1574 -823 233 -64 400 -95 678
-127 201 -24 644 -24 874 0 503 51 1012 197 1458 417 596 295 1172 780 1561
1315 390 538 652 1159 757 1793 46 283 58 459 52 776 -11 612 -117 1097 -359
1645 -457 1037 -1321 1838 -2436 2259 -394 149 -785 228 -1239 251 -216 11
-239 11 -453 -1z m490 -229 c499 -35 951 -149 1386 -349 433 -200 723 -393
1101 -733 639 -577 1083 -1398 1227 -2268 124 -750 30 -1510 -275 -2234 -415
-981 -1321 -1834 -2319 -2184 -691 -243 -1384 -300 -2130 -176 -142 24 -396
90 -544 141 -727 253 -1297 656 -1818 1288 -289 351 -531 788 -676 1223 -165
493 -232 999 -203 1517 24 418 83 736 204 1090 252 739 740 1403 1387 1886
774 578 1726 864 2660 799z"/>
<path d="M4770 8360 l0 -490 110 0 110 0 0 139 0 140 48 51 47 52 125 -190
125 -191 128 0 c70 -1 127 2 127 6 0 4 -8 16 -19 27 -43 47 -332 488 -328 499
4 11 81 109 264 340 l52 65 -67 12 c-37 6 -87 14 -112 16 l-45 5 -115 -147
c-63 -81 -141 -179 -172 -217 l-58 -69 0 221 0 221 -110 0 -110 0 0 -490z"/>
<path d="M6050 8675 c-9 -25 -89 -278 -205 -653 -31 -101 -55 -185 -53 -186
14 -13 194 -64 200 -58 4 4 28 73 52 152 24 80 83 270 131 424 47 153 84 280
82 282 -6 6 -176 64 -188 64 -5 0 -14 -11 -19 -25z"/>
<path d="M3907 8606 c-42 -13 -147 -49 -233 -81 -151 -57 -155 -59 -149 -84 4
-14 53 -156 110 -316 153 -426 176 -489 180 -493 2 -2 47 10 99 28 60 20 96
37 96 46 0 7 -22 75 -50 151 -27 75 -49 137 -47 138 1 0 30 10 64 22 l62 20
115 -133 116 -133 77 24 c43 14 96 31 118 38 l40 14 -142 143 -142 143 31 35
c92 106 91 259 -4 367 -83 95 -187 116 -341 71z m148 -178 c36 -16 68 -81 60
-119 -9 -42 -56 -73 -162 -108 -50 -17 -95 -31 -101 -31 -5 0 -25 45 -44 100
l-34 99 70 25 c116 40 130 44 158 45 15 1 39 -4 53 -11z"/>
<path d="M6669 8318 c-29 -46 -132 -204 -229 -353 -97 -148 -180 -276 -184
-282 -5 -9 21 -27 86 -58 50 -24 95 -41 98 -37 3 5 68 109 145 232 l140 223 6
-90 c4 -50 12 -196 18 -324 7 -129 14 -243 16 -254 5 -23 172 -105 183 -89
147 210 482 725 477 733 -6 10 -157 91 -169 91 -2 0 -73 -107 -157 -237 l-154
-237 -18 325 c-9 178 -20 334 -25 347 -5 17 -29 33 -86 58 -44 19 -83 34 -87
34 -4 0 -31 -37 -60 -82z"/>
<path d="M2703 7933 c-48 -30 -94 -61 -101 -67 -10 -9 -4 -32 26 -111 21 -55
94 -253 162 -440 68 -187 126 -344 130 -348 8 -9 190 72 190 84 0 5 -18 57
-40 115 -45 120 -47 129 -24 138 9 4 75 42 146 86 l128 80 38 -23 c81 -52 73
-52 152 12 39 32 72 62 72 67 0 4 -22 19 -49 34 -51 28 -347 199 -595 343
l-147 85 -88 -55z m260 -267 c60 -36 121 -71 138 -78 27 -12 39 -28 21 -28 -5
0 -46 -22 -91 -50 -71 -43 -83 -47 -88 -32 -4 9 -28 70 -54 135 -25 64 -44
117 -40 117 3 0 55 -29 114 -64z"/>
<path d="M4970 7608 c-636 -25 -1222 -279 -1665 -723 -365 -364 -591 -806
-686 -1340 -27 -151 -38 -528 -20 -686 58 -507 264 -988 592 -1379 349 -417
809 -695 1344 -815 607 -135 1269 -51 1802 230 114 60 343 210 343 225 0 5
-37 82 -82 171 -81 160 -81 161 -111 155 -16 -3 -332 -6 -702 -6 l-673 0 -6
-33 c-13 -64 -58 -130 -106 -155 -40 -20 -57 -23 -147 -20 -97 3 -103 4 -132
32 -17 17 -36 46 -41 65 -6 21 -10 187 -10 389 l0 353 26 52 c15 29 39 70 54
92 14 22 30 45 33 51 4 7 -18 24 -57 43 -112 55 -157 134 -106 189 35 38 61
37 169 -7 55 -22 108 -41 116 -43 11 -2 28 35 66 147 87 259 129 325 241 386
l63 34 570 0 570 0 57 -27 c105 -49 170 -124 221 -258 25 -64 79 -209 90 -242
6 -16 12 -15 78 7 101 35 133 33 175 -9 21 -21 34 -44 34 -60 0 -34 -50 -89
-116 -126 -30 -18 -54 -33 -54 -34 0 -2 24 -48 53 -102 l52 -99 5 -300 5 -300
68 85 c241 303 406 638 492 1000 73 310 84 659 30 976 -117 686 -524 1302
-1120 1697 -292 193 -684 330 -1060 371 -184 20 -257 22 -455 14z m585 -646
c381 -107 618 -434 591 -818 -25 -360 -242 -644 -576 -752 -126 -41 -236 -52
-542 -52 l-287 0 -3 -315 -3 -315 -28 -27 -27 -28 -255 -3 -255 -3 0 1171 0
1171 653 -3 c640 -4 653 -4 732 -26z"/>
<path d="M4740 6539 c0 -2 -1 -174 -3 -382 l-2 -378 290 3 290 3 65 31 c80 38
145 101 179 174 30 65 40 193 21 277 -16 72 -82 159 -151 200 -91 54 -146 63
-431 70 -142 3 -258 4 -258 2z"/>
<path d="M7647 7499 c-87 -13 -174 -59 -239 -127 -143 -150 -182 -366 -103
-565 135 -337 549 -372 704 -59 l26 53 -45 37 c-25 20 -88 78 -141 129 l-96
93 -61 -64 c-34 -35 -62 -67 -62 -70 0 -5 86 -88 130 -125 l25 -21 -28 -25
c-58 -52 -169 -22 -225 60 -46 66 -65 134 -59 210 7 85 26 132 74 186 69 76
156 103 241 75 129 -43 198 -143 206 -299 l2 -32 79 -12 c123 -18 115 -20 115
37 0 79 -29 199 -63 264 -99 186 -284 284 -480 255z"/>
<path d="M2177 7270 c-60 -15 -109 -45 -159 -97 -48 -50 -271 -400 -265 -417
4 -11 129 -89 621 -390 l148 -91 24 30 c30 37 88 135 82 140 -10 10 -82 56
-171 109 -53 32 -99 61 -102 66 -2 4 24 48 59 98 113 164 144 263 112 360 -45
134 -211 226 -349 192z m119 -224 c28 -28 34 -41 34 -78 0 -38 -9 -59 -61
-137 -33 -51 -66 -94 -73 -97 -6 -2 -51 18 -98 47 l-87 51 31 51 c114 194 180
237 254 163z"/>
<path d="M5305 4823 c-25 -7 -74 -41 -97 -68 -16 -19 -53 -98 -125 -270 -18
-43 -33 -79 -33 -80 0 0 365 0 810 0 536 0 809 3 806 10 -135 321 -157 360
-226 395 -38 19 -59 20 -577 19 -296 -1 -547 -4 -558 -6z"/>
<path d="M4934 4074 c-17 -8 -41 -32 -52 -53 -42 -74 -18 -169 49 -203 44 -23
222 -25 274 -4 99 42 100 197 3 256 -28 17 -51 20 -138 20 -74 0 -114 -5 -136
-16z"/>
<path d="M6498 4075 c-59 -33 -90 -125 -63 -190 27 -67 54 -80 180 -83 102 -3
113 -2 145 20 65 43 87 124 53 195 -28 59 -62 73 -183 73 -72 -1 -113 -5 -132
-15z"/>
<path d="M5505 3988 c-34 -19 -44 -41 -45 -90 0 -40 4 -50 31 -72 l31 -26 340
0 340 0 34 34 c45 45 47 95 5 137 l-29 29 -344 0 c-239 -1 -349 -4 -363 -12z"/>
<path d="M7520 3600 c-62 -70 -80 -96 -75 -111 8 -24 176 -393 211 -462 23
-44 24 -49 7 -44 -49 15 -282 80 -393 111 -116 31 -126 33 -144 17 -28 -24
-136 -158 -136 -168 1 -4 138 -147 305 -317 258 -262 306 -307 319 -297 8 7
41 44 73 83 l57 70 -220 216 c-120 118 -210 212 -199 207 11 -4 41 -16 67 -26
54 -21 425 -129 444 -129 7 0 31 23 54 50 l42 51 -78 172 c-44 95 -99 214
-124 265 -25 50 -45 92 -43 92 1 0 53 -42 115 -93 129 -106 347 -279 365 -290
7 -5 34 21 72 70 34 43 61 81 61 85 0 3 -33 30 -72 59 -40 29 -181 136 -313
239 -132 102 -256 198 -277 214 l-36 27 -82 -91z"/>
<path d="M2638 3506 c-70 -19 -124 -59 -157 -118 -61 -107 -50 -201 45 -369
66 -116 70 -154 22 -194 -27 -23 -39 -26 -73 -22 -51 7 -116 74 -135 141 -12
44 -10 136 5 182 6 20 1 22 -90 39 -73 13 -100 14 -108 6 -21 -21 -15 -216 8
-286 61 -187 267 -318 427 -271 122 35 200 135 200 254 0 67 -18 114 -87 233
-27 45 -47 94 -51 122 -6 40 -3 48 19 71 51 51 139 22 181 -59 17 -32 21 -56
20 -127 l-2 -87 52 -11 c28 -6 70 -14 93 -17 l41 -5 7 46 c13 84 1 196 -27
256 -73 159 -248 256 -390 216z"/>
<path d="M3306 2848 c-3 -57 -8 -195 -11 -307 l-5 -205 -97 -165 -96 -164 24
-19 c12 -11 54 -38 92 -60 55 -32 71 -38 78 -27 4 8 45 79 91 158 l83 144 239
137 c132 75 241 141 243 147 2 6 -13 46 -34 88 l-39 76 -183 -106 c-102 -58
-186 -103 -188 -101 -3 2 1 91 7 197 6 105 7 195 3 199 -4 4 -51 31 -105 59
l-96 52 -6 -103z"/>
<path d="M6700 2745 c-14 -7 -144 -66 -290 -130 -146 -65 -267 -120 -269 -122
-9 -7 23 -80 147 -333 68 -140 148 -306 178 -367 29 -62 55 -113 58 -113 9 0
236 101 406 180 96 45 181 84 188 87 7 3 11 8 10 12 -2 3 -18 37 -36 75 -18
39 -34 71 -36 73 -2 2 -37 -11 -77 -30 -172 -79 -327 -147 -335 -147 -5 0 -27
40 -50 88 l-40 87 135 59 c75 33 160 70 188 82 42 18 52 27 47 41 -16 49 -58
143 -63 143 -4 0 -91 -38 -195 -85 -103 -47 -188 -85 -190 -85 -1 0 -17 32
-36 70 -21 43 -30 73 -24 78 8 8 73 38 327 151 l67 30 -36 78 c-19 43 -38 81
-42 85 -4 3 -18 1 -32 -7z"/>
<path d="M4343 2395 c-213 -58 -277 -284 -119 -423 19 -16 76 -55 127 -87 146
-89 184 -134 163 -190 -9 -23 -58 -45 -101 -45 -78 1 -182 71 -224 153 -11 20
-24 37 -30 37 -6 0 -44 -25 -85 -56 l-74 -56 17 -30 c42 -73 124 -148 208
-189 72 -36 94 -42 169 -46 123 -8 194 14 261 82 57 56 75 102 75 186 0 117
-54 180 -244 285 -122 68 -160 118 -123 165 64 83 227 25 267 -96 6 -19 16
-35 21 -35 19 0 164 42 173 50 5 5 -1 35 -14 70 -42 113 -149 196 -289 226
-81 17 -111 17 -178 -1z"/>
<path d="M5770 2384 c-95 -17 -490 -71 -593 -80 -43 -4 -80 -10 -83 -15 -2 -4
1 -49 7 -100 l12 -91 71 6 c39 4 99 12 134 18 36 6 67 7 72 2 5 -5 25 -166 45
-359 20 -192 37 -351 40 -353 6 -7 197 16 205 24 4 5 4 41 -1 79 -32 256 -68
629 -62 636 4 4 63 16 131 25 67 10 128 21 134 25 7 5 7 26 -1 75 -18 106 -22
124 -29 123 -4 -1 -41 -7 -82 -15z"/>
</g>
</svg>
