<?xml version="1.0" encoding="UTF-8"?>
<svg xmlns="http://www.w3.org/2000/svg" xmlns:xlink="http://www.w3.org/1999/xlink" width="32px" height="32px" viewBox="0 0 32 32" version="1.1">
<g id="surface1">
<path style=" stroke:none;fill-rule:nonzero;fill:rgb(0%,0%,0%);fill-opacity:1;" d="M 15.25 2.785156 C 13.257812 2.886719 11.167969 3.503906 9.414062 4.5 C 8.921875 4.785156 8.585938 5.007812 8.039062 5.421875 C 4.851562 7.820312 3.011719 11.15625 2.75 15.015625 C 2.515625 18.480469 3.578125 21.820312 5.738281 24.421875 C 6.160156 24.929688 7.09375 25.867188 7.539062 26.238281 C 9.023438 27.457031 10.691406 28.332031 12.460938 28.808594 C 13.1875 29.007812 13.710938 29.105469 14.578125 29.207031 C 15.207031 29.28125 16.589844 29.28125 17.308594 29.207031 C 18.882812 29.046875 20.472656 28.589844 21.867188 27.902344 C 23.726562 26.980469 25.527344 25.464844 26.742188 23.792969 C 27.960938 22.113281 28.78125 20.171875 29.109375 18.191406 C 29.253906 17.304688 29.289062 16.757812 29.273438 15.765625 C 29.238281 13.851562 28.90625 12.335938 28.148438 10.625 C 26.722656 7.382812 24.023438 4.882812 20.539062 3.566406 C 19.304688 3.101562 18.085938 2.851562 16.664062 2.78125 C 15.992188 2.746094 15.917969 2.746094 15.25 2.785156 Z M 16.78125 3.5 C 18.339844 3.609375 19.753906 3.964844 21.113281 4.589844 C 22.464844 5.214844 23.371094 5.820312 24.554688 6.882812 C 26.550781 8.683594 27.9375 11.25 28.386719 13.96875 C 28.773438 16.3125 28.480469 18.6875 27.527344 20.949219 C 26.230469 24.015625 23.398438 26.679688 20.28125 27.773438 C 18.121094 28.535156 15.957031 28.710938 13.625 28.324219 C 13.179688 28.25 12.386719 28.042969 11.925781 27.882812 C 9.652344 27.09375 7.871094 25.835938 6.242188 23.859375 C 5.339844 22.761719 4.585938 21.398438 4.132812 20.039062 C 3.617188 18.496094 3.40625 16.914062 3.496094 15.296875 C 3.570312 13.992188 3.757812 12.996094 4.132812 11.890625 C 4.921875 9.582031 6.445312 7.507812 8.46875 5.996094 C 10.886719 4.191406 13.863281 3.296875 16.78125 3.5 Z M 16.78125 3.5 "/>
<path style=" stroke:none;fill-rule:nonzero;fill:rgb(0%,0%,0%);fill-opacity:1;" d="M 14.90625 5.875 L 14.90625 7.40625 L 15.59375 7.40625 L 15.59375 6.535156 L 15.742188 6.375 L 15.890625 6.210938 L 16.28125 6.804688 L 16.671875 7.402344 L 17.070312 7.402344 C 17.289062 7.40625 17.46875 7.398438 17.46875 7.382812 C 17.46875 7.371094 17.445312 7.335938 17.410156 7.300781 C 17.273438 7.152344 16.371094 5.773438 16.382812 5.742188 C 16.398438 5.707031 16.636719 5.398438 17.210938 4.679688 L 17.371094 4.476562 L 17.164062 4.4375 C 17.046875 4.417969 16.890625 4.394531 16.8125 4.386719 L 16.671875 4.371094 L 16.3125 4.832031 C 16.117188 5.085938 15.871094 5.390625 15.773438 5.507812 L 15.59375 5.726562 L 15.59375 4.34375 L 14.90625 4.34375 Z M 14.90625 5.875 "/>
<path style=" stroke:none;fill-rule:nonzero;fill:rgb(0%,0%,0%);fill-opacity:1;" d="M 18.90625 4.890625 C 18.878906 4.96875 18.628906 5.757812 18.265625 6.929688 C 18.167969 7.246094 18.09375 7.507812 18.101562 7.511719 C 18.144531 7.554688 18.707031 7.710938 18.726562 7.695312 C 18.738281 7.679688 18.8125 7.464844 18.886719 7.21875 C 18.960938 6.96875 19.148438 6.375 19.296875 5.894531 C 19.445312 5.414062 19.558594 5.019531 19.554688 5.011719 C 19.535156 4.992188 19.003906 4.8125 18.964844 4.8125 C 18.949219 4.8125 18.921875 4.847656 18.90625 4.890625 Z M 18.90625 4.890625 "/>
<path style=" stroke:none;fill-rule:nonzero;fill:rgb(0%,0%,0%);fill-opacity:1;" d="M 12.210938 5.105469 C 12.078125 5.148438 11.75 5.257812 11.480469 5.359375 C 11.007812 5.539062 10.996094 5.542969 11.015625 5.621094 C 11.027344 5.664062 11.179688 6.109375 11.359375 6.609375 C 11.835938 7.941406 11.910156 8.136719 11.921875 8.148438 C 11.929688 8.15625 12.070312 8.117188 12.230469 8.0625 C 12.417969 8 12.53125 7.945312 12.53125 7.917969 C 12.53125 7.898438 12.460938 7.683594 12.375 7.445312 C 12.289062 7.210938 12.222656 7.019531 12.226562 7.015625 C 12.230469 7.015625 12.320312 6.984375 12.429688 6.945312 L 12.621094 6.882812 L 12.980469 7.300781 L 13.34375 7.714844 L 13.585938 7.640625 C 13.71875 7.597656 13.882812 7.542969 13.953125 7.523438 L 14.078125 7.476562 L 13.632812 7.03125 L 13.191406 6.585938 L 13.289062 6.476562 C 13.574219 6.144531 13.570312 5.664062 13.273438 5.328125 C 13.015625 5.03125 12.691406 4.964844 12.210938 5.105469 Z M 12.671875 5.664062 C 12.785156 5.710938 12.882812 5.914062 12.859375 6.035156 C 12.832031 6.164062 12.683594 6.261719 12.351562 6.371094 C 12.195312 6.425781 12.054688 6.46875 12.039062 6.46875 C 12.023438 6.46875 11.960938 6.328125 11.898438 6.15625 L 11.792969 5.847656 L 12.011719 5.769531 C 12.375 5.644531 12.417969 5.632812 12.507812 5.628906 C 12.554688 5.625 12.628906 5.640625 12.671875 5.664062 Z M 12.671875 5.664062 "/>
<path style=" stroke:none;fill-rule:nonzero;fill:rgb(0%,0%,0%);fill-opacity:1;" d="M 20.839844 6.007812 C 20.75 6.148438 20.429688 6.644531 20.125 7.109375 C 19.820312 7.570312 19.5625 7.972656 19.550781 7.992188 C 19.535156 8.019531 19.617188 8.074219 19.820312 8.171875 C 19.976562 8.246094 20.117188 8.300781 20.125 8.289062 C 20.132812 8.273438 20.335938 7.945312 20.578125 7.5625 L 21.015625 6.867188 L 21.035156 7.148438 C 21.046875 7.304688 21.070312 7.757812 21.089844 8.160156 C 21.113281 8.5625 21.132812 8.917969 21.140625 8.953125 C 21.15625 9.023438 21.679688 9.28125 21.710938 9.230469 C 22.171875 8.574219 23.21875 6.964844 23.203125 6.941406 C 23.183594 6.910156 22.710938 6.65625 22.675781 6.65625 C 22.667969 6.65625 22.445312 6.992188 22.183594 7.398438 L 21.703125 8.136719 L 21.648438 7.121094 C 21.617188 6.566406 21.585938 6.078125 21.570312 6.039062 C 21.554688 5.984375 21.476562 5.933594 21.300781 5.855469 C 21.164062 5.796875 21.039062 5.75 21.027344 5.75 C 21.015625 5.75 20.929688 5.867188 20.839844 6.007812 Z M 20.839844 6.007812 "/>
<path style=" stroke:none;fill-rule:nonzero;fill:rgb(0%,0%,0%);fill-opacity:1;" d="M 8.445312 7.210938 C 8.296875 7.304688 8.152344 7.398438 8.132812 7.417969 C 8.101562 7.445312 8.117188 7.519531 8.210938 7.765625 C 8.277344 7.9375 8.507812 8.554688 8.71875 9.140625 C 8.929688 9.726562 9.113281 10.214844 9.125 10.226562 C 9.148438 10.257812 9.71875 10.003906 9.71875 9.964844 C 9.71875 9.949219 9.664062 9.789062 9.59375 9.605469 C 9.453125 9.230469 9.445312 9.203125 9.519531 9.175781 C 9.546875 9.164062 9.753906 9.042969 9.976562 8.90625 L 10.375 8.65625 L 10.492188 8.726562 C 10.746094 8.890625 10.722656 8.890625 10.96875 8.691406 C 11.089844 8.589844 11.195312 8.496094 11.195312 8.480469 C 11.195312 8.46875 11.125 8.421875 11.039062 8.375 C 10.882812 8.289062 9.957031 7.753906 9.179688 7.304688 L 8.722656 7.039062 Z M 9.257812 8.042969 C 9.445312 8.15625 9.636719 8.265625 9.691406 8.289062 C 9.773438 8.324219 9.8125 8.375 9.757812 8.375 C 9.742188 8.375 9.613281 8.445312 9.472656 8.53125 C 9.25 8.664062 9.210938 8.679688 9.195312 8.632812 C 9.183594 8.601562 9.109375 8.414062 9.027344 8.210938 C 8.949219 8.007812 8.890625 7.84375 8.902344 7.84375 C 8.914062 7.84375 9.074219 7.933594 9.257812 8.042969 Z M 9.257812 8.042969 "/>
<path style=" stroke:none;fill-rule:nonzero;fill:rgb(0%,0%,0%);fill-opacity:1;" d="M 15.53125 8.226562 C 13.542969 8.304688 11.710938 9.097656 10.328125 10.484375 C 9.1875 11.621094 8.480469 13.003906 8.183594 14.671875 C 8.101562 15.144531 8.066406 16.320312 8.121094 16.816406 C 8.304688 18.398438 8.945312 19.902344 9.972656 21.125 C 11.0625 22.429688 12.5 23.296875 14.171875 23.671875 C 16.070312 24.09375 18.136719 23.832031 19.804688 22.953125 C 20.160156 22.765625 20.875 22.296875 20.875 22.25 C 20.875 22.234375 20.757812 21.992188 20.617188 21.714844 C 20.367188 21.214844 20.367188 21.210938 20.273438 21.230469 C 20.222656 21.242188 19.234375 21.25 18.078125 21.25 L 15.976562 21.25 L 15.957031 21.351562 C 15.914062 21.554688 15.773438 21.757812 15.625 21.835938 C 15.5 21.898438 15.445312 21.910156 15.164062 21.898438 C 14.863281 21.890625 14.84375 21.886719 14.753906 21.800781 C 14.699219 21.746094 14.640625 21.65625 14.625 21.597656 C 14.605469 21.53125 14.59375 21.011719 14.59375 20.382812 L 14.59375 19.277344 L 14.675781 19.117188 C 14.722656 19.023438 14.796875 18.898438 14.84375 18.828125 C 14.886719 18.757812 14.9375 18.6875 14.945312 18.667969 C 14.960938 18.648438 14.890625 18.59375 14.769531 18.535156 C 14.417969 18.363281 14.277344 18.117188 14.4375 17.945312 C 14.546875 17.824219 14.628906 17.828125 14.964844 17.964844 C 15.136719 18.035156 15.304688 18.09375 15.328125 18.101562 C 15.363281 18.105469 15.414062 17.992188 15.535156 17.640625 C 15.804688 16.832031 15.9375 16.625 16.289062 16.433594 L 16.484375 16.328125 L 20.046875 16.328125 L 20.226562 16.414062 C 20.554688 16.566406 20.757812 16.800781 20.914062 17.21875 C 20.992188 17.417969 21.164062 17.871094 21.195312 17.976562 C 21.214844 18.023438 21.234375 18.023438 21.441406 17.953125 C 21.757812 17.84375 21.855469 17.851562 21.988281 17.980469 C 22.054688 18.046875 22.09375 18.117188 22.09375 18.167969 C 22.09375 18.273438 21.9375 18.445312 21.730469 18.5625 C 21.636719 18.617188 21.5625 18.664062 21.5625 18.667969 C 21.5625 18.675781 21.636719 18.820312 21.726562 18.988281 L 21.890625 19.296875 L 21.921875 21.171875 L 22.132812 20.90625 C 22.886719 19.960938 23.402344 18.914062 23.671875 17.78125 C 23.898438 16.8125 23.933594 15.722656 23.765625 14.730469 C 23.398438 12.585938 22.128906 10.664062 20.265625 9.429688 C 19.351562 8.824219 18.128906 8.398438 16.953125 8.269531 C 16.378906 8.207031 16.148438 8.199219 15.53125 8.226562 Z M 17.359375 10.242188 C 18.550781 10.578125 19.289062 11.601562 19.207031 12.800781 C 19.128906 13.925781 18.449219 14.8125 17.40625 15.148438 C 17.011719 15.277344 16.667969 15.3125 15.710938 15.3125 L 14.816406 15.3125 L 14.804688 16.296875 L 14.796875 17.28125 L 14.625 17.453125 L 13.828125 17.460938 L 13.03125 17.472656 L 13.03125 10.152344 L 15.070312 10.164062 C 17.070312 10.175781 17.113281 10.175781 17.359375 10.242188 Z M 17.359375 10.242188 "/>
<path style=" stroke:none;fill-rule:nonzero;fill:rgb(0%,0%,0%);fill-opacity:1;" d="M 14.8125 11.566406 C 14.8125 11.570312 14.808594 12.109375 14.804688 12.757812 L 14.796875 13.941406 L 15.703125 13.929688 L 16.609375 13.921875 L 16.8125 13.824219 C 17.0625 13.707031 17.265625 13.507812 17.371094 13.28125 C 17.464844 13.078125 17.496094 12.679688 17.4375 12.414062 C 17.386719 12.191406 17.179688 11.917969 16.964844 11.789062 C 16.679688 11.621094 16.507812 11.59375 15.617188 11.570312 C 15.175781 11.5625 14.8125 11.558594 14.8125 11.566406 Z M 14.8125 11.566406 "/>
<path style=" stroke:none;fill-rule:nonzero;fill:rgb(0%,0%,0%);fill-opacity:1;" d="M 23.898438 8.566406 C 23.625 8.605469 23.351562 8.75 23.148438 8.960938 C 22.703125 9.429688 22.582031 10.105469 22.828125 10.726562 C 23.25 11.78125 24.542969 11.890625 25.027344 10.914062 L 25.109375 10.746094 L 24.96875 10.632812 C 24.890625 10.570312 24.695312 10.386719 24.527344 10.226562 L 24.226562 9.9375 L 24.039062 10.136719 C 23.929688 10.246094 23.84375 10.347656 23.84375 10.355469 C 23.84375 10.371094 24.113281 10.632812 24.25 10.746094 L 24.328125 10.8125 L 24.242188 10.890625 C 24.058594 11.054688 23.710938 10.960938 23.539062 10.703125 C 23.394531 10.496094 23.335938 10.285156 23.351562 10.046875 C 23.375 9.78125 23.433594 9.632812 23.585938 9.464844 C 23.800781 9.226562 24.070312 9.144531 24.335938 9.230469 C 24.742188 9.367188 24.957031 9.679688 24.980469 10.164062 L 24.988281 10.265625 L 25.234375 10.304688 C 25.617188 10.359375 25.59375 10.367188 25.59375 10.1875 C 25.59375 9.941406 25.503906 9.566406 25.398438 9.363281 C 25.085938 8.78125 24.507812 8.476562 23.898438 8.566406 Z M 23.898438 8.566406 "/>
<path style=" stroke:none;fill-rule:nonzero;fill:rgb(0%,0%,0%);fill-opacity:1;" d="M 6.804688 9.28125 C 6.617188 9.328125 6.460938 9.421875 6.304688 9.585938 C 6.15625 9.742188 5.460938 10.835938 5.476562 10.886719 C 5.492188 10.921875 5.882812 11.164062 7.417969 12.105469 L 7.882812 12.390625 L 7.957031 12.296875 C 8.050781 12.179688 8.230469 11.875 8.210938 11.859375 C 8.179688 11.828125 7.957031 11.683594 7.679688 11.519531 C 7.511719 11.417969 7.367188 11.328125 7.359375 11.3125 C 7.351562 11.300781 7.433594 11.164062 7.542969 11.007812 C 7.898438 10.492188 7.992188 10.183594 7.894531 9.882812 C 7.753906 9.460938 7.234375 9.175781 6.804688 9.28125 Z M 7.175781 9.980469 C 7.261719 10.070312 7.28125 10.109375 7.28125 10.226562 C 7.28125 10.34375 7.253906 10.410156 7.089844 10.652344 C 6.988281 10.8125 6.882812 10.945312 6.863281 10.957031 C 6.84375 10.960938 6.703125 10.898438 6.554688 10.808594 L 6.285156 10.648438 L 6.382812 10.492188 C 6.738281 9.882812 6.945312 9.75 7.175781 9.980469 Z M 7.175781 9.980469 "/>
<path style=" stroke:none;fill-rule:nonzero;fill:rgb(0%,0%,0%);fill-opacity:1;" d="M 16.578125 16.929688 C 16.5 16.949219 16.347656 17.054688 16.273438 17.140625 C 16.226562 17.199219 16.109375 17.445312 15.882812 17.984375 C 15.828125 18.117188 15.78125 18.230469 15.78125 18.234375 C 15.78125 18.234375 16.921875 18.234375 18.3125 18.234375 C 19.988281 18.234375 20.839844 18.226562 20.832031 18.203125 C 20.410156 17.199219 20.339844 17.078125 20.125 16.96875 C 20.007812 16.910156 19.941406 16.90625 18.320312 16.910156 C 17.398438 16.914062 16.613281 16.921875 16.578125 16.929688 Z M 16.578125 16.929688 "/>
<path style=" stroke:none;fill-rule:nonzero;fill:rgb(0%,0%,0%);fill-opacity:1;" d="M 15.417969 19.269531 C 15.367188 19.292969 15.289062 19.367188 15.257812 19.433594 C 15.125 19.664062 15.199219 19.960938 15.410156 20.070312 C 15.546875 20.140625 16.101562 20.148438 16.265625 20.082031 C 16.574219 19.949219 16.578125 19.464844 16.273438 19.28125 C 16.1875 19.226562 16.117188 19.21875 15.84375 19.21875 C 15.613281 19.21875 15.488281 19.234375 15.417969 19.269531 Z M 15.417969 19.269531 "/>
<path style=" stroke:none;fill-rule:nonzero;fill:rgb(0%,0%,0%);fill-opacity:1;" d="M 20.304688 19.265625 C 20.121094 19.367188 20.023438 19.65625 20.109375 19.859375 C 20.195312 20.070312 20.277344 20.109375 20.671875 20.117188 C 20.992188 20.128906 21.023438 20.125 21.125 20.054688 C 21.328125 19.921875 21.398438 19.667969 21.289062 19.445312 C 21.203125 19.261719 21.097656 19.21875 20.71875 19.21875 C 20.492188 19.222656 20.367188 19.234375 20.304688 19.265625 Z M 20.304688 19.265625 "/>
<path style=" stroke:none;fill-rule:nonzero;fill:rgb(0%,0%,0%);fill-opacity:1;" d="M 17.203125 19.539062 C 17.097656 19.597656 17.066406 19.664062 17.0625 19.820312 C 17.0625 19.945312 17.074219 19.976562 17.160156 20.042969 L 17.257812 20.125 L 19.382812 20.125 L 19.488281 20.019531 C 19.628906 19.878906 19.632812 19.722656 19.503906 19.589844 L 19.414062 19.5 L 18.335938 19.5 C 17.589844 19.503906 17.246094 19.511719 17.203125 19.539062 Z M 17.203125 19.539062 "/>
<path style=" stroke:none;fill-rule:nonzero;fill:rgb(0%,0%,0%);fill-opacity:1;" d="M 23.5 20.75 C 23.304688 20.96875 23.25 21.050781 23.265625 21.097656 C 23.289062 21.171875 23.816406 22.324219 23.925781 22.539062 C 23.996094 22.679688 24 22.695312 23.945312 22.679688 C 23.792969 22.632812 23.066406 22.429688 22.71875 22.332031 C 22.355469 22.234375 22.324219 22.226562 22.269531 22.277344 C 22.179688 22.351562 21.84375 22.773438 21.84375 22.804688 C 21.847656 22.816406 22.273438 23.261719 22.796875 23.792969 C 23.601562 24.613281 23.753906 24.753906 23.792969 24.722656 C 23.820312 24.699219 23.921875 24.585938 24.023438 24.460938 L 24.199219 24.242188 L 23.511719 23.570312 C 23.136719 23.199219 22.855469 22.90625 22.890625 22.921875 C 22.925781 22.933594 23.019531 22.972656 23.101562 23.003906 C 23.269531 23.070312 24.429688 23.40625 24.488281 23.40625 C 24.507812 23.40625 24.585938 23.335938 24.65625 23.25 L 24.789062 23.089844 L 24.542969 22.554688 C 24.40625 22.257812 24.234375 21.882812 24.15625 21.726562 C 24.078125 21.570312 24.015625 21.4375 24.023438 21.4375 C 24.023438 21.4375 24.1875 21.570312 24.382812 21.726562 C 24.785156 22.058594 25.464844 22.601562 25.523438 22.632812 C 25.542969 22.648438 25.628906 22.570312 25.746094 22.414062 C 25.851562 22.28125 25.9375 22.164062 25.9375 22.148438 C 25.9375 22.140625 25.835938 22.054688 25.710938 21.964844 C 25.585938 21.875 25.148438 21.539062 24.734375 21.21875 C 24.320312 20.898438 23.933594 20.601562 23.867188 20.550781 L 23.757812 20.464844 Z M 23.5 20.75 "/>
<path style=" stroke:none;fill-rule:nonzero;fill:rgb(0%,0%,0%);fill-opacity:1;" d="M 8.242188 21.042969 C 8.023438 21.101562 7.855469 21.226562 7.753906 21.414062 C 7.5625 21.746094 7.597656 22.039062 7.894531 22.566406 C 8.101562 22.929688 8.113281 23.046875 7.960938 23.171875 C 7.878906 23.242188 7.839844 23.253906 7.734375 23.242188 C 7.574219 23.21875 7.371094 23.007812 7.3125 22.800781 C 7.273438 22.664062 7.28125 22.375 7.328125 22.230469 C 7.347656 22.167969 7.332031 22.164062 7.046875 22.109375 C 6.820312 22.070312 6.734375 22.066406 6.710938 22.089844 C 6.644531 22.15625 6.664062 22.765625 6.734375 22.984375 C 6.925781 23.570312 7.570312 23.976562 8.070312 23.832031 C 8.449219 23.722656 8.695312 23.410156 8.695312 23.039062 C 8.695312 22.828125 8.636719 22.679688 8.421875 22.308594 C 8.335938 22.167969 8.273438 22.015625 8.261719 21.929688 C 8.242188 21.804688 8.253906 21.777344 8.320312 21.707031 C 8.480469 21.546875 8.757812 21.636719 8.886719 21.890625 C 8.941406 21.992188 8.953125 22.066406 8.949219 22.289062 L 8.945312 22.558594 L 9.105469 22.59375 C 9.195312 22.613281 9.324219 22.636719 9.398438 22.648438 L 9.523438 22.664062 L 9.546875 22.519531 C 9.585938 22.257812 9.550781 21.90625 9.460938 21.71875 C 9.234375 21.222656 8.6875 20.917969 8.242188 21.042969 Z M 8.242188 21.042969 "/>
<path style=" stroke:none;fill-rule:nonzero;fill:rgb(0%,0%,0%);fill-opacity:1;" d="M 10.332031 23.101562 C 10.320312 23.277344 10.304688 23.710938 10.296875 24.058594 L 10.28125 24.699219 L 9.976562 25.214844 L 9.679688 25.726562 L 9.753906 25.789062 C 9.789062 25.820312 9.921875 25.90625 10.039062 25.976562 C 10.210938 26.074219 10.261719 26.09375 10.285156 26.058594 C 10.296875 26.035156 10.425781 25.8125 10.570312 25.566406 L 10.828125 25.117188 L 11.574219 24.6875 C 11.988281 24.453125 12.328125 24.246094 12.335938 24.226562 C 12.339844 24.210938 12.292969 24.085938 12.226562 23.953125 L 12.105469 23.714844 L 11.535156 24.046875 C 11.214844 24.226562 10.953125 24.367188 10.945312 24.363281 C 10.9375 24.355469 10.949219 24.078125 10.96875 23.746094 C 10.988281 23.417969 10.992188 23.136719 10.976562 23.125 C 10.964844 23.113281 10.820312 23.027344 10.648438 22.941406 L 10.351562 22.777344 Z M 10.332031 23.101562 "/>
<path style=" stroke:none;fill-rule:nonzero;fill:rgb(0%,0%,0%);fill-opacity:1;" d="M 20.9375 23.421875 C 20.894531 23.445312 20.488281 23.628906 20.03125 23.828125 C 19.574219 24.03125 19.195312 24.203125 19.191406 24.210938 C 19.164062 24.230469 19.261719 24.460938 19.648438 25.25 C 19.863281 25.6875 20.113281 26.207031 20.207031 26.398438 C 20.296875 26.589844 20.378906 26.75 20.386719 26.75 C 20.414062 26.75 21.125 26.433594 21.65625 26.1875 C 21.957031 26.046875 22.222656 25.925781 22.242188 25.914062 C 22.265625 25.90625 22.277344 25.890625 22.273438 25.878906 C 22.269531 25.867188 22.21875 25.761719 22.164062 25.644531 C 22.105469 25.523438 22.054688 25.421875 22.050781 25.414062 C 22.042969 25.410156 21.933594 25.449219 21.808594 25.507812 C 21.273438 25.757812 20.789062 25.96875 20.761719 25.96875 C 20.746094 25.96875 20.679688 25.84375 20.605469 25.695312 L 20.480469 25.421875 L 20.902344 25.238281 C 21.136719 25.132812 21.402344 25.019531 21.492188 24.980469 C 21.621094 24.925781 21.652344 24.898438 21.636719 24.851562 C 21.585938 24.699219 21.457031 24.40625 21.441406 24.40625 C 21.429688 24.40625 21.15625 24.523438 20.832031 24.671875 C 20.507812 24.820312 20.242188 24.9375 20.238281 24.9375 C 20.234375 24.9375 20.183594 24.835938 20.125 24.71875 C 20.058594 24.585938 20.03125 24.492188 20.050781 24.476562 C 20.074219 24.449219 20.277344 24.355469 21.070312 24.003906 L 21.28125 23.910156 L 21.167969 23.664062 C 21.109375 23.53125 21.050781 23.414062 21.039062 23.398438 C 21.023438 23.390625 20.980469 23.398438 20.9375 23.421875 Z M 20.9375 23.421875 "/>
<path style=" stroke:none;fill-rule:nonzero;fill:rgb(0%,0%,0%);fill-opacity:1;" d="M 13.570312 24.515625 C 12.90625 24.695312 12.707031 25.402344 13.199219 25.835938 C 13.257812 25.886719 13.4375 26.007812 13.597656 26.109375 C 14.054688 26.386719 14.171875 26.527344 14.105469 26.703125 C 14.078125 26.773438 13.925781 26.84375 13.789062 26.84375 C 13.546875 26.839844 13.222656 26.621094 13.089844 26.367188 C 13.054688 26.304688 13.015625 26.25 12.996094 26.25 C 12.976562 26.25 12.859375 26.328125 12.730469 26.425781 L 12.5 26.601562 L 12.554688 26.695312 C 12.683594 26.921875 12.941406 27.15625 13.203125 27.285156 C 13.429688 27.398438 13.496094 27.414062 13.730469 27.429688 C 14.117188 27.453125 14.335938 27.382812 14.546875 27.171875 C 14.726562 26.996094 14.78125 26.851562 14.78125 26.589844 C 14.78125 26.226562 14.613281 26.027344 14.019531 25.699219 C 13.636719 25.488281 13.519531 25.332031 13.632812 25.183594 C 13.835938 24.925781 14.34375 25.105469 14.46875 25.484375 C 14.488281 25.542969 14.519531 25.59375 14.535156 25.59375 C 14.59375 25.59375 15.046875 25.460938 15.074219 25.4375 C 15.089844 25.421875 15.070312 25.328125 15.03125 25.21875 C 14.898438 24.867188 14.566406 24.605469 14.128906 24.511719 C 13.875 24.460938 13.78125 24.460938 13.570312 24.515625 Z M 13.570312 24.515625 "/>
<path style=" stroke:none;fill-rule:nonzero;fill:rgb(0%,0%,0%);fill-opacity:1;" d="M 18.03125 24.550781 C 17.734375 24.601562 16.5 24.773438 16.179688 24.800781 C 16.042969 24.8125 15.929688 24.832031 15.917969 24.847656 C 15.914062 24.859375 15.921875 25 15.941406 25.160156 L 15.976562 25.445312 L 16.199219 25.425781 C 16.320312 25.414062 16.507812 25.386719 16.617188 25.367188 C 16.730469 25.351562 16.828125 25.347656 16.84375 25.363281 C 16.859375 25.378906 16.921875 25.882812 16.984375 26.484375 C 17.046875 27.085938 17.101562 27.582031 17.109375 27.585938 C 17.128906 27.609375 17.726562 27.539062 17.75 27.511719 C 17.761719 27.496094 17.761719 27.382812 17.746094 27.265625 C 17.648438 26.464844 17.535156 25.300781 17.554688 25.277344 C 17.566406 25.265625 17.75 25.226562 17.960938 25.199219 C 18.171875 25.167969 18.363281 25.132812 18.382812 25.121094 C 18.402344 25.105469 18.402344 25.039062 18.378906 24.886719 C 18.320312 24.554688 18.308594 24.5 18.289062 24.503906 C 18.273438 24.507812 18.160156 24.523438 18.03125 24.550781 Z M 18.03125 24.550781 "/>
</g>
</svg>
